<svg xmlns="http://www.w3.org/2000/svg" width="1000px" height="1000px" viewBox="0 0 1000 1000">
<line x1="662.6339" y1="769.9681" x2="631.4708" y2="746.5384" stroke="black" stroke-width="1.0" fill="none" />
<line x1="631.4708" y1="746.5384" x2="614.3409" y2="716.7175" stroke="black" stroke-width="1.0" fill="none" />
<line x1="614.3409" y1="716.7175" x2="610.4807" y2="685.2496" stroke="black" stroke-width="1.0" fill="none" />
<line x1="610.4807" y1="685.2496" x2="627.1954" y2="656.1152" stroke="black" stroke-width="1.0" fill="none" />
<line x1="627.1954" y1="656.1152" x2="662.5432" y2="636.9063" stroke="black" stroke-width="1.0" fill="none" />
<line x1="662.5432" y1="636.9063" x2="706.7243" y2="629.6699" stroke="black" stroke-width="1.0" fill="none" />
<line x1="706.7243" y1="629.6699" x2="750.0742" y2="633.9090" stroke="black" stroke-width="1.0" fill="none" />
<line x1="750.0742" y1="633.9090" x2="786.3209" y2="653.1639" stroke="black" stroke-width="1.0" fill="none" />
<line x1="786.3209" y1="653.1639" x2="814.6940" y2="678.2224" stroke="black" stroke-width="1.0" fill="none" />
<line x1="814.6940" y1="678.2224" x2="844.9332" y2="702.0014" stroke="black" stroke-width="1.0" fill="none" />
<line x1="844.9332" y1="702.0014" x2="872.1758" y2="695.9501" stroke="black" stroke-width="1.0" fill="none" />
<line x1="872.1758" y1="695.9501" x2="858.1595" y2="665.6832" stroke="black" stroke-width="1.0" fill="none" />
<line x1="858.1595" y1="665.6832" x2="840.9230" y2="635.9076" stroke="black" stroke-width="1.0" fill="none" />
<line x1="840.9230" y1="635.9076" x2="835.4540" y2="604.1463" stroke="black" stroke-width="1.0" fill="none" />
<line x1="835.4540" y1="604.1463" x2="833.6386" y2="571.9883" stroke="black" stroke-width="1.0" fill="none" />
<line x1="833.6386" y1="571.9883" x2="833.1144" y2="539.8065" stroke="black" stroke-width="1.0" fill="none" />
<line x1="833.1144" y1="539.8065" x2="835.9165" y2="507.7046" stroke="black" stroke-width="1.0" fill="none" />
<line x1="835.9165" y1="507.7046" x2="840.1356" y2="475.6555" stroke="black" stroke-width="1.0" fill="none" />
<line x1="840.1356" y1="475.6555" x2="851.4356" y2="444.5801" stroke="black" stroke-width="1.0" fill="none" />
<line x1="851.4356" y1="444.5801" x2="860.6302" y2="413.1049" stroke="black" stroke-width="1.0" fill="none" />
<line x1="860.6302" y1="413.1049" x2="866.5403" y2="381.2150" stroke="black" stroke-width="1.0" fill="none" />
<line x1="866.5403" y1="381.2150" x2="870.9853" y2="349.1825" stroke="black" stroke-width="1.0" fill="none" />
<line x1="870.9853" y1="349.1825" x2="876.0113" y2="317.1916" stroke="black" stroke-width="1.0" fill="none" />
<line x1="876.0113" y1="317.1916" x2="878.5978" y2="285.0674" stroke="black" stroke-width="1.0" fill="none" />
<line x1="878.5978" y1="285.0674" x2="880.6044" y2="252.9109" stroke="black" stroke-width="1.0" fill="none" />
<line x1="880.6044" y1="252.9109" x2="882.7190" y2="220.7578" stroke="black" stroke-width="1.0" fill="none" />
<line x1="882.7190" y1="220.7578" x2="883.2813" y2="188.5792" stroke="black" stroke-width="1.0" fill="none" />
<line x1="883.2813" y1="188.5792" x2="879.0824" y2="156.5622" stroke="black" stroke-width="1.0" fill="none" />
<line x1="879.0824" y1="156.5622" x2="839.3028" y2="151.0714" stroke="black" stroke-width="1.0" fill="none" />
<line x1="839.3028" y1="151.0714" x2="796.9535" y2="162.7857" stroke="black" stroke-width="1.0" fill="none" />
<line x1="796.9535" y1="162.7857" x2="755.7512" y2="176.4395" stroke="black" stroke-width="1.0" fill="none" />
<line x1="755.7512" y1="176.4395" x2="715.2734" y2="191.1477" stroke="black" stroke-width="1.0" fill="none" />
<line x1="715.2734" y1="191.1477" x2="673.4777" y2="202.7046" stroke="black" stroke-width="1.0" fill="none" />
<line x1="673.4777" y1="202.7046" x2="644.6932" y2="181.0339" stroke="black" stroke-width="1.0" fill="none" />
<line x1="644.6932" y1="181.0339" x2="629.2253" y2="150.8373" stroke="black" stroke-width="1.0" fill="none" />
<line x1="629.2253" y1="150.8373" x2="608.0380" y2="122.3617" stroke="black" stroke-width="1.0" fill="none" />
<line x1="608.0380" y1="122.3617" x2="587.7859" y2="93.7161" stroke="black" stroke-width="1.0" fill="none" />
<line x1="587.7859" y1="93.7161" x2="558.3955" y2="73.6759" stroke="black" stroke-width="1.0" fill="none" />
<line x1="558.3955" y1="73.6759" x2="514.6799" y2="71.0327" stroke="black" stroke-width="1.0" fill="none" />
<line x1="514.6799" y1="71.0327" x2="470.1675" y2="77.6819" stroke="black" stroke-width="1.0" fill="none" />
<line x1="470.1675" y1="77.6819" x2="425.5457" y2="83.9261" stroke="black" stroke-width="1.0" fill="none" />
<line x1="425.5457" y1="83.9261" x2="380.2120" y2="86.7756" stroke="black" stroke-width="1.0" fill="none" />
<line x1="380.2120" y1="86.7756" x2="335.1234" y2="90.6850" stroke="black" stroke-width="1.0" fill="none" />
<line x1="335.1234" y1="90.6850" x2="292.2794" y2="101.0589" stroke="black" stroke-width="1.0" fill="none" />
<line x1="292.2794" y1="101.0589" x2="253.7728" y2="117.9726" stroke="black" stroke-width="1.0" fill="none" />
<line x1="253.7728" y1="117.9726" x2="236.5121" y2="145.9060" stroke="black" stroke-width="1.0" fill="none" />
<line x1="236.5121" y1="145.9060" x2="266.8435" y2="168.2516" stroke="black" stroke-width="1.0" fill="none" />
<line x1="266.8435" y1="168.2516" x2="306.9246" y2="183.4374" stroke="black" stroke-width="1.0" fill="none" />
<line x1="306.9246" y1="183.4374" x2="339.1069" y2="206.1976" stroke="black" stroke-width="1.0" fill="none" />
<line x1="339.1069" y1="206.1976" x2="366.1417" y2="231.8539" stroke="black" stroke-width="1.0" fill="none" />
<line x1="366.1417" y1="231.8539" x2="392.2631" y2="258.2005" stroke="black" stroke-width="1.0" fill="none" />
<line x1="392.2631" y1="258.2005" x2="417.0827" y2="285.1176" stroke="black" stroke-width="1.0" fill="none" />
<line x1="417.0827" y1="285.1176" x2="410.1373" y2="315.8703" stroke="black" stroke-width="1.0" fill="none" />
<line x1="410.1373" y1="315.8703" x2="392.9179" y2="344.9751" stroke="black" stroke-width="1.0" fill="none" />
<line x1="392.9179" y1="344.9751" x2="357.2460" y2="364.7321" stroke="black" stroke-width="1.0" fill="none" />
<line x1="357.2460" y1="364.7321" x2="320.2283" y2="382.3674" stroke="black" stroke-width="1.0" fill="none" />
<line x1="320.2283" y1="382.3674" x2="275.6757" y2="376.3093" stroke="black" stroke-width="1.0" fill="none" />
<line x1="275.6757" y1="376.3093" x2="232.0097" y2="367.4711" stroke="black" stroke-width="1.0" fill="none" />
<line x1="232.0097" y1="367.4711" x2="188.3560" y2="367.1101" stroke="black" stroke-width="1.0" fill="none" />
<line x1="188.3560" y1="367.1101" x2="162.2302" y2="388.9380" stroke="black" stroke-width="1.0" fill="none" />
<line x1="162.2302" y1="388.9380" x2="169.5157" y2="417.5675" stroke="black" stroke-width="1.0" fill="none" />
<line x1="169.5157" y1="417.5675" x2="207.0914" y2="434.2447" stroke="black" stroke-width="1.0" fill="none" />
<line x1="207.0914" y1="434.2447" x2="247.4742" y2="448.6406" stroke="black" stroke-width="1.0" fill="none" />
<line x1="247.4742" y1="448.6406" x2="287.5752" y2="463.7964" stroke="black" stroke-width="1.0" fill="none" />
<line x1="287.5752" y1="463.7964" x2="321.9987" y2="483.8028" stroke="black" stroke-width="1.0" fill="none" />
<line x1="321.9987" y1="483.8028" x2="345.3688" y2="511.1973" stroke="black" stroke-width="1.0" fill="none" />
<line x1="345.3688" y1="511.1973" x2="355.4932" y2="542.3619" stroke="black" stroke-width="1.0" fill="none" />
<line x1="355.4932" y1="542.3619" x2="343.6473" y2="572.0392" stroke="black" stroke-width="1.0" fill="none" />
<line x1="343.6473" y1="572.0392" x2="316.6146" y2="597.8281" stroke="black" stroke-width="1.0" fill="none" />
<line x1="316.6146" y1="597.8281" x2="276.0953" y2="612.0083" stroke="black" stroke-width="1.0" fill="none" />
<line x1="276.0953" y1="612.0083" x2="232.6778" y2="621.6030" stroke="black" stroke-width="1.0" fill="none" />
<line x1="232.6778" y1="621.6030" x2="200.0535" y2="641.6500" stroke="black" stroke-width="1.0" fill="none" />
<line x1="200.0535" y1="641.6500" x2="222.3324" y2="665.0511" stroke="black" stroke-width="1.0" fill="none" />
<line x1="222.3324" y1="665.0511" x2="262.6238" y2="665.8999" stroke="black" stroke-width="1.0" fill="none" />
<line x1="262.6238" y1="665.8999" x2="300.6974" y2="648.5613" stroke="black" stroke-width="1.0" fill="none" />
<line x1="300.6974" y1="648.5613" x2="340.7284" y2="633.2523" stroke="black" stroke-width="1.0" fill="none" />
<line x1="340.7284" y1="633.2523" x2="382.2880" y2="620.8431" stroke="black" stroke-width="1.0" fill="none" />
<line x1="382.2880" y1="620.8431" x2="425.4132" y2="622.0615" stroke="black" stroke-width="1.0" fill="none" />
<line x1="425.4132" y1="622.0615" x2="460.6170" y2="641.7104" stroke="black" stroke-width="1.0" fill="none" />
<line x1="460.6170" y1="641.7104" x2="487.0177" y2="667.8598" stroke="black" stroke-width="1.0" fill="none" />
<line x1="487.0177" y1="667.8598" x2="487.8199" y2="699.7474" stroke="black" stroke-width="1.0" fill="none" />
<line x1="487.8199" y1="699.7474" x2="472.0922" y2="729.3399" stroke="black" stroke-width="1.0" fill="none" />
<line x1="472.0922" y1="729.3399" x2="444.6914" y2="754.9911" stroke="black" stroke-width="1.0" fill="none" />
<line x1="444.6914" y1="754.9911" x2="431.9917" y2="781.6745" stroke="black" stroke-width="1.0" fill="none" />
<line x1="431.9917" y1="781.6745" x2="472.1405" y2="796.8317" stroke="black" stroke-width="1.0" fill="none" />
<line x1="472.1405" y1="796.8317" x2="514.5540" y2="806.0558" stroke="black" stroke-width="1.0" fill="none" />
<line x1="514.5540" y1="806.0558" x2="546.5941" y2="787.5914" stroke="black" stroke-width="1.0" fill="none" />
<line x1="546.5941" y1="787.5914" x2="580.3868" y2="768.8359" stroke="black" stroke-width="1.0" fill="none" />
<line x1="580.3868" y1="768.8359" x2="620.3984" y2="783.7976" stroke="black" stroke-width="1.0" fill="none" />
<line x1="620.3984" y1="783.7976" x2="653.2755" y2="806.0513" stroke="black" stroke-width="1.0" fill="none" />
<line x1="653.2755" y1="806.0513" x2="683.6550" y2="830.0135" stroke="black" stroke-width="1.0" fill="none" />
<line x1="683.6550" y1="830.0135" x2="709.3133" y2="856.5978" stroke="black" stroke-width="1.0" fill="none" />
<line x1="709.3133" y1="856.5978" x2="737.9498" y2="881.6156" stroke="black" stroke-width="1.0" fill="none" />
<line x1="737.9498" y1="881.6156" x2="772.0097" y2="902.7438" stroke="black" stroke-width="1.0" fill="none" />
<line x1="772.0097" y1="902.7438" x2="815.2040" y2="899.8419" stroke="black" stroke-width="1.0" fill="none" />
<line x1="815.2040" y1="899.8419" x2="822.5501" y2="876.9525" stroke="black" stroke-width="1.0" fill="none" />
<line x1="822.5501" y1="876.9525" x2="788.3860" y2="855.9854" stroke="black" stroke-width="1.0" fill="none" />
<line x1="788.3860" y1="855.9854" x2="755.0980" y2="834.1434" stroke="black" stroke-width="1.0" fill="none" />
<line x1="755.0980" y1="834.1434" x2="720.3546" y2="813.3950" stroke="black" stroke-width="1.0" fill="none" />
<line x1="720.3546" y1="813.3950" x2="662.6339" y2="769.9681" stroke="black" stroke-width="1.0" fill="none" />
<line x1="937.5262" y1="919.5569" x2="939.4978" y2="878.2631" stroke="black" stroke-width="1.0" fill="none" />
<line x1="939.4978" y1="878.2631" x2="925.3832" y2="838.6544" stroke="black" stroke-width="1.0" fill="none" />
<line x1="925.3832" y1="838.6544" x2="889.5129" y2="806.1076" stroke="black" stroke-width="1.0" fill="none" />
<line x1="889.5129" y1="806.1076" x2="840.1688" y2="783.7802" stroke="black" stroke-width="1.0" fill="none" />
<line x1="840.1688" y1="783.7802" x2="789.6100" y2="763.1691" stroke="black" stroke-width="1.0" fill="none" />
<line x1="789.6100" y1="763.1691" x2="745.5158" y2="735.8591" stroke="black" stroke-width="1.0" fill="none" />
<line x1="745.5158" y1="735.8591" x2="709.6643" y2="703.1262" stroke="black" stroke-width="1.0" fill="none" />
<line x1="709.6643" y1="703.1262" x2="732.5014" y2="723.1665" stroke="black" stroke-width="1.0" fill="none" />
<line x1="732.5014" y1="723.1665" x2="774.3174" y2="752.3284" stroke="black" stroke-width="1.0" fill="none" />
<line x1="774.3174" y1="752.3284" x2="822.5725" y2="775.6443" stroke="black" stroke-width="1.0" fill="none" />
<line x1="822.5725" y1="775.6443" x2="877.8954" y2="786.1264" stroke="black" stroke-width="1.0" fill="none" />
<line x1="877.8954" y1="786.1264" x2="928.2508" y2="766.4569" stroke="black" stroke-width="1.0" fill="none" />
<line x1="928.2508" y1="766.4569" x2="957.2278" y2="730.9445" stroke="black" stroke-width="1.0" fill="none" />
<line x1="957.2278" y1="730.9445" x2="960.6575" y2="690.0291" stroke="black" stroke-width="1.0" fill="none" />
<line x1="960.6575" y1="690.0291" x2="956.9059" y2="648.8131" stroke="black" stroke-width="1.0" fill="none" />
<line x1="956.9059" y1="648.8131" x2="957.8592" y2="607.3147" stroke="black" stroke-width="1.0" fill="none" />
<line x1="957.8592" y1="607.3147" x2="939.6153" y2="568.9827" stroke="black" stroke-width="1.0" fill="none" />
<line x1="939.6153" y1="568.9827" x2="896.0809" y2="541.6233" stroke="black" stroke-width="1.0" fill="none" />
<line x1="896.0809" y1="541.6233" x2="884.2105" y2="502.9340" stroke="black" stroke-width="1.0" fill="none" />
<line x1="884.2105" y1="502.9340" x2="910.9752" y2="466.8567" stroke="black" stroke-width="1.0" fill="none" />
<line x1="910.9752" y1="466.8567" x2="951.8957" y2="437.0414" stroke="black" stroke-width="1.0" fill="none" />
<line x1="951.8957" y1="437.0414" x2="972.8892" y2="402.1536" stroke="black" stroke-width="1.0" fill="none" />
<line x1="972.8892" y1="402.1536" x2="975.0759" y2="360.6316" stroke="black" stroke-width="1.0" fill="none" />
<line x1="975.0759" y1="360.6316" x2="976.0214" y2="319.0912" stroke="black" stroke-width="1.0" fill="none" />
<line x1="976.0214" y1="319.0912" x2="977.8127" y2="277.5686" stroke="black" stroke-width="1.0" fill="none" />
<line x1="977.8127" y1="277.5686" x2="980.6682" y2="236.1155" stroke="black" stroke-width="1.0" fill="none" />
<line x1="980.6682" y1="236.1155" x2="982.1481" y2="194.7134" stroke="black" stroke-width="1.0" fill="none" />
<line x1="982.1481" y1="194.7134" x2="984.5115" y2="153.2013" stroke="black" stroke-width="1.0" fill="none" />
<line x1="984.5115" y1="153.2013" x2="989.0960" y2="111.9016" stroke="black" stroke-width="1.0" fill="none" />
<line x1="989.0960" y1="111.9016" x2="990.0000" y2="74.5003" stroke="black" stroke-width="1.0" fill="none" />
<line x1="990.0000" y1="74.5003" x2="931.8952" y2="76.3542" stroke="black" stroke-width="1.0" fill="none" />
<line x1="931.8952" y1="76.3542" x2="876.0558" y2="88.9723" stroke="black" stroke-width="1.0" fill="none" />
<line x1="876.0558" y1="88.9723" x2="823.3744" y2="106.9307" stroke="black" stroke-width="1.0" fill="none" />
<line x1="823.3744" y1="106.9307" x2="770.7603" y2="125.1529" stroke="black" stroke-width="1.0" fill="none" />
<line x1="770.7603" y1="125.1529" x2="718.2731" y2="143.7722" stroke="black" stroke-width="1.0" fill="none" />
<line x1="718.2731" y1="143.7722" x2="696.0012" y2="110.5230" stroke="black" stroke-width="1.0" fill="none" />
<line x1="696.0012" y1="110.5230" x2="670.3354" y2="73.2072" stroke="black" stroke-width="1.0" fill="none" />
<line x1="670.3354" y1="73.2072" x2="653.2095" y2="33.6169" stroke="black" stroke-width="1.0" fill="none" />
<line x1="653.2095" y1="33.6169" x2="608.0255" y2="10.0000" stroke="black" stroke-width="1.0" fill="none" />
<line x1="608.0255" y1="10.0000" x2="549.6390" y2="12.9776" stroke="black" stroke-width="1.0" fill="none" />
<line x1="549.6390" y1="12.9776" x2="493.7989" y2="23.9545" stroke="black" stroke-width="1.0" fill="none" />
<line x1="493.7989" y1="23.9545" x2="438.0795" y2="32.7728" stroke="black" stroke-width="1.0" fill="none" />
<line x1="438.0795" y1="32.7728" x2="379.9712" y2="38.7635" stroke="black" stroke-width="1.0" fill="none" />
<line x1="379.9712" y1="38.7635" x2="321.9312" y2="44.9303" stroke="black" stroke-width="1.0" fill="none" />
<line x1="321.9312" y1="44.9303" x2="263.3717" y2="48.1824" stroke="black" stroke-width="1.0" fill="none" />
<line x1="263.3717" y1="48.1824" x2="207.0674" y2="59.3028" stroke="black" stroke-width="1.0" fill="none" />
<line x1="207.0674" y1="59.3028" x2="159.7180" y2="83.2212" stroke="black" stroke-width="1.0" fill="none" />
<line x1="159.7180" y1="83.2212" x2="137.3848" y2="120.6733" stroke="black" stroke-width="1.0" fill="none" />
<line x1="137.3848" y1="120.6733" x2="141.6345" y2="161.4382" stroke="black" stroke-width="1.0" fill="none" />
<line x1="141.6345" y1="161.4382" x2="171.5083" y2="196.4476" stroke="black" stroke-width="1.0" fill="none" />
<line x1="171.5083" y1="196.4476" x2="222.5530" y2="215.9334" stroke="black" stroke-width="1.0" fill="none" />
<line x1="222.5530" y1="215.9334" x2="271.3310" y2="238.7973" stroke="black" stroke-width="1.0" fill="none" />
<line x1="271.3310" y1="238.7973" x2="313.9275" y2="267.1994" stroke="black" stroke-width="1.0" fill="none" />
<line x1="313.9275" y1="267.1994" x2="319.0065" y2="273.7026" stroke="black" stroke-width="1.0" fill="none" />
<line x1="319.0065" y1="273.7026" x2="276.6919" y2="245.3137" stroke="black" stroke-width="1.0" fill="none" />
<line x1="276.6919" y1="245.3137" x2="228.6673" y2="221.5317" stroke="black" stroke-width="1.0" fill="none" />
<line x1="228.6673" y1="221.5317" x2="171.9379" y2="218.3929" stroke="black" stroke-width="1.0" fill="none" />
<line x1="171.9379" y1="218.3929" x2="117.0186" y2="229.9224" stroke="black" stroke-width="1.0" fill="none" />
<line x1="117.0186" y1="229.9224" x2="77.3280" y2="259.7853" stroke="black" stroke-width="1.0" fill="none" />
<line x1="77.3280" y1="259.7853" x2="45.6131" y2="294.6494" stroke="black" stroke-width="1.0" fill="none" />
<line x1="45.6131" y1="294.6494" x2="23.5128" y2="332.9857" stroke="black" stroke-width="1.0" fill="none" />
<line x1="23.5128" y1="332.9857" x2="10.3806" y2="373.4024" stroke="black" stroke-width="1.0" fill="none" />
<line x1="10.3806" y1="373.4024" x2="10.0000" y2="414.6880" stroke="black" stroke-width="1.0" fill="none" />
<line x1="10.0000" y1="414.6880" x2="21.8907" y2="455.2263" stroke="black" stroke-width="1.0" fill="none" />
<line x1="21.8907" y1="455.2263" x2="39.2281" y2="494.7489" stroke="black" stroke-width="1.0" fill="none" />
<line x1="39.2281" y1="494.7489" x2="70.4756" y2="529.6288" stroke="black" stroke-width="1.0" fill="none" />
<line x1="70.4756" y1="529.6288" x2="118.4463" y2="550.0187" stroke="black" stroke-width="1.0" fill="none" />
<line x1="118.4463" y1="550.0187" x2="176.2022" y2="543.9656" stroke="black" stroke-width="1.0" fill="none" />
<line x1="176.2022" y1="543.9656" x2="234.5186" y2="539.6470" stroke="black" stroke-width="1.0" fill="none" />
<line x1="234.5186" y1="539.6470" x2="267.9830" y2="541.7742" stroke="black" stroke-width="1.0" fill="none" />
<line x1="267.9830" y1="541.7742" x2="209.2896" y2="542.8338" stroke="black" stroke-width="1.0" fill="none" />
<line x1="209.2896" y1="542.8338" x2="151.6578" y2="550.3734" stroke="black" stroke-width="1.0" fill="none" />
<line x1="151.6578" y1="550.3734" x2="99.8940" y2="563.9714" stroke="black" stroke-width="1.0" fill="none" />
<line x1="99.8940" y1="563.9714" x2="82.9742" y2="603.7481" stroke="black" stroke-width="1.0" fill="none" />
<line x1="82.9742" y1="603.7481" x2="82.8602" y2="645.2244" stroke="black" stroke-width="1.0" fill="none" />
<line x1="82.8602" y1="645.2244" x2="102.2574" y2="684.3790" stroke="black" stroke-width="1.0" fill="none" />
<line x1="102.2574" y1="684.3790" x2="131.2142" y2="719.9309" stroke="black" stroke-width="1.0" fill="none" />
<line x1="131.2142" y1="719.9309" x2="173.8533" y2="748.2512" stroke="black" stroke-width="1.0" fill="none" />
<line x1="173.8533" y1="748.2512" x2="224.4033" y2="768.1868" stroke="black" stroke-width="1.0" fill="none" />
<line x1="224.4033" y1="768.1868" x2="277.4786" y2="758.3971" stroke="black" stroke-width="1.0" fill="none" />
<line x1="277.4786" y1="758.3971" x2="318.7022" y2="729.0243" stroke="black" stroke-width="1.0" fill="none" />
<line x1="318.7022" y1="729.0243" x2="359.5429" y2="699.1584" stroke="black" stroke-width="1.0" fill="none" />
<line x1="359.5429" y1="699.1584" x2="395.1685" y2="677.4518" stroke="black" stroke-width="1.0" fill="none" />
<line x1="395.1685" y1="677.4518" x2="355.9132" y2="708.1182" stroke="black" stroke-width="1.0" fill="none" />
<line x1="355.9132" y1="708.1182" x2="314.7150" y2="737.5552" stroke="black" stroke-width="1.0" fill="none" />
<line x1="314.7150" y1="737.5552" x2="277.0675" y2="769.4340" stroke="black" stroke-width="1.0" fill="none" />
<line x1="277.0675" y1="769.4340" x2="283.9284" y2="809.7270" stroke="black" stroke-width="1.0" fill="none" />
<line x1="283.9284" y1="809.7270" x2="318.0145" y2="842.8896" stroke="black" stroke-width="1.0" fill="none" />
<line x1="318.0145" y1="842.8896" x2="367.1134" y2="865.4600" stroke="black" stroke-width="1.0" fill="none" />
<line x1="367.1134" y1="865.4600" x2="419.3090" y2="883.9557" stroke="black" stroke-width="1.0" fill="none" />
<line x1="419.3090" y1="883.9557" x2="467.7619" y2="907.4005" stroke="black" stroke-width="1.0" fill="none" />
<line x1="467.7619" y1="907.4005" x2="517.1257" y2="929.0560" stroke="black" stroke-width="1.0" fill="none" />
<line x1="517.1257" y1="929.0560" x2="574.6799" y2="935.2384" stroke="black" stroke-width="1.0" fill="none" />
<line x1="574.6799" y1="935.2384" x2="633.2656" y2="936.3690" stroke="black" stroke-width="1.0" fill="none" />
<line x1="633.2656" y1="936.3690" x2="681.1520" y2="959.5994" stroke="black" stroke-width="1.0" fill="none" />
<line x1="681.1520" y1="959.5994" x2="731.5753" y2="980.6638" stroke="black" stroke-width="1.0" fill="none" />
<line x1="731.5753" y1="980.6638" x2="788.6343" y2="990.0000" stroke="black" stroke-width="1.0" fill="none" />
<line x1="788.6343" y1="990.0000" x2="846.2576" y2="983.1932" stroke="black" stroke-width="1.0" fill="none" />
<line x1="846.2576" y1="983.1932" x2="895.7691" y2="961.7467" stroke="black" stroke-width="1.0" fill="none" />
<line x1="895.7691" y1="961.7467" x2="937.5262" y2="919.5569" stroke="black" stroke-width="1.0" fill="none" />
</svg>